<svg xmlns="http://www.w3.org/2000/svg" version="1.1" xmlns:xlink="http://www.w3.org/1999/xlink" xmlns:svgjs="http://svgjs.dev/svgjs" width="1000" height="133" viewBox="0 0 1000 133"><g transform="matrix(1,0,0,1,-0.6060455399565967,-0.12458554489579399)"><svg viewBox="0 0 396 53" data-background-color="#ffffff" preserveAspectRatio="xMidYMid meet" height="133" width="1000" xmlns="http://www.w3.org/2000/svg" xmlns:xlink="http://www.w3.org/1999/xlink"><g id="tight-bounds" transform="matrix(1,0,0,1,0.2399947545377472,0.049646871274262594)"><svg viewBox="0 0 395.52 52.90070625745149" height="52.90070625745149" width="395.52"><g><svg viewBox="0 0 501.20509056430365 67.03606207190938" height="52.90070625745149" width="395.52"><g><rect width="4.374371388466604" height="58.20786865867674" x="89.8594851746155" y="4.4140967066163235" fill="#124948" opacity="1" stroke-width="0" stroke="transparent" fill-opacity="1" class="rect-o-0" data-fill-palette-color="primary" rx="1%" id="o-0" data-palette-color="#124948"></rect></g><g transform="matrix(1,0,0,1,105.68509056430358,9.264752428172716)"><svg viewBox="0 0 395.52000000000004 48.50655721556395" height="48.50655721556395" width="395.52000000000004"><g id="textblocktransform"><svg viewBox="0 0 395.52000000000004 48.50655721556395" height="48.50655721556395" width="395.52000000000004" id="textblock"><g><svg viewBox="0 0 395.52000000000004 48.50655721556395" height="48.50655721556395" width="395.52000000000004"><g transform="matrix(1,0,0,1,0,0)"><svg width="395.52000000000004" viewBox="1.9500000476837158 -36.95000076293945 304.5199890136719 37.35000228881836" height="48.50655721556395" data-palette-color="#124948"><path d="M22.7-32.2L22.7-32.2 22.7-25Q18.65-27.35 14.3-27.35L14.3-27.35Q12.35-27.35 11.33-26.55 10.3-25.75 10.3-24.5 10.3-23.25 11.55-22.28 12.8-21.3 15.3-20.2L15.3-20.2Q16.85-19.5 17.88-18.98 18.9-18.45 20.23-17.53 21.55-16.6 22.33-15.58 23.1-14.55 23.65-13.05 24.2-11.55 24.2-9.8L24.2-9.8Q24.2-5.25 20.85-2.43 17.5 0.4 11.95 0.4L11.95 0.4Q6 0.4 2.25-1.7L2.25-1.7 2.25-9.45Q6.8-6.15 11.95-6.15L11.95-6.15Q13.7-6.15 14.85-7.08 16-8 16-9.5L16-9.5Q16-10 15.85-10.45 15.7-10.9 15.3-11.3 14.9-11.7 14.53-11.98 14.15-12.25 13.43-12.63 12.7-13 12.2-13.25 11.7-13.5 10.73-13.95 9.75-14.4 9.15-14.65L9.15-14.65Q5.9-16.15 3.93-18.35 1.95-20.55 1.95-24.2L1.95-24.2Q1.95-28.55 5.15-31.23 8.35-33.9 14-33.9L14-33.9Q19.05-33.9 22.7-32.2ZM28.7-25.35L36-25.35 36-21.4Q38.1-25.6 43.15-25.6L43.15-25.6Q48.5-25.6 50.25-20.8L50.25-20.8Q51.1-23.05 53.1-24.33 55.1-25.6 57.8-25.6L57.8-25.6Q61.55-25.6 63.72-23.23 65.9-20.85 65.9-16.25L65.9-16.25 65.9 0 58.6 0 58.6-15.05Q58.6-17.2 57.75-18.45 56.9-19.7 55.3-19.7L55.3-19.7Q53.6-19.7 52.27-18.32 50.95-16.95 50.95-13.4L50.95-13.4 50.95 0 43.65 0 43.65-15.05Q43.65-17.2 42.8-18.45 41.95-19.7 40.35-19.7L40.35-19.7Q38.65-19.7 37.32-18.32 36-16.95 36-13.4L36-13.4 36 0 28.7 0 28.7-25.35ZM84.2-8.55L84.2-10.4 81.85-10.4Q80-10.4 79-9.6 78-8.8 78-7.55L78-7.55Q78-5 80.95-5L80.95-5Q82.5-5 83.35-5.95 84.2-6.9 84.2-8.55L84.2-8.55ZM72.35-17.55L72.35-17.55 72.35-24.1Q75.35-25.8 81-25.8L81-25.8Q86.4-25.8 89.05-23.48 91.7-21.15 91.7-16.25L91.7-16.25 91.7 0 84.55 0 84.55-3.1Q82.95 0.15 78.25 0.15L78.25 0.15Q74.55 0.15 72.47-1.95 70.4-4.05 70.4-7.2L70.4-7.2Q70.4-10.85 73.07-12.88 75.75-14.9 81-14.9L81-14.9 84.2-14.9 84.2-16.65Q84.2-19.85 79.95-19.85L79.95-19.85Q75.85-19.85 72.35-17.55ZM97.44-25.35L104.69-25.35 104.69-20.65Q105.39-22.85 107.02-24.18 108.64-25.5 110.79-25.5L110.79-25.5Q111.99-25.5 112.69-25.3L112.69-25.3 112.69-18.4Q111.49-18.95 109.94-18.95L109.94-18.95Q107.59-18.95 106.14-17.23 104.69-15.5 104.69-12.65L104.69-12.65 104.69 0 97.39 0 97.44-25.35ZM130.29-20L124.39-20 124.39-8.35Q124.39-7 125.17-6.3 125.94-5.6 127.19-5.6L127.19-5.6Q129.19-5.6 130.74-6.6L130.74-6.6 130.74-0.55Q128.89 0.25 125.74 0.25L125.74 0.25Q117.09 0.25 117.09-8.4L117.09-8.4 117.09-20 113.44-20 113.44-25.35 117.09-25.35 117.09-31.35 124.39-31.35 124.39-25.35 130.29-25.35 130.29-20ZM143.19-13.95L143.19-6.15 147.24-6.15Q152.94-6.15 152.94-10.05 152.94-13.95 147.29-13.95L147.29-13.95 143.19-13.95ZM147.29-27.55L143.19-27.55 143.19-20 146.04-20Q149.04-20 150.56-21.1 152.09-22.2 152.09-24L152.09-24Q152.09-27.55 147.29-27.55L147.29-27.55ZM135.49 0L135.49-33.7 148.59-33.7Q154.14-33.7 157.04-31.08 159.94-28.45 159.94-24.4L159.94-24.4Q159.94-21.75 158.54-19.75 157.14-17.75 154.89-17.05L154.89-17.05Q160.74-15.3 160.74-9.15L160.74-9.15Q160.74-5.15 157.86-2.58 154.99 0 150.04 0L150.04 0 135.49 0ZM165.49-25.35L172.74-25.35 172.74-20.65Q173.44-22.85 175.06-24.18 176.69-25.5 178.84-25.5L178.84-25.5Q180.04-25.5 180.74-25.3L180.74-25.3 180.74-18.4Q179.54-18.95 177.99-18.95L177.99-18.95Q175.64-18.95 174.19-17.23 172.74-15.5 172.74-12.65L172.74-12.65 172.74 0 165.44 0 165.49-25.35ZM191.53 0L184.23 0 184.23-25.35 191.53-25.35 191.53 0ZM184.88-29.7Q183.63-30.95 183.63-32.7 183.63-34.45 184.88-35.7 186.13-36.95 187.88-36.95 189.63-36.95 190.88-35.7 192.13-34.45 192.13-32.7 192.13-30.95 190.88-29.7 189.63-28.45 187.88-28.45 186.13-28.45 184.88-29.7ZM203.63-15L212.43-15 212.43-15.6Q212.08-20.05 208.53-20.05L208.53-20.05Q206.78-20.05 205.43-18.78 204.08-17.5 203.63-15L203.63-15ZM217.68-7.55L217.68-7.55 217.68-1.45Q215.08 0.25 209.73 0.25L209.73 0.25Q203.48 0.25 200.01-3.38 196.53-7 196.53-12.7L196.53-12.7Q196.53-18.75 199.91-22.18 203.28-25.6 208.23-25.6L208.23-25.6Q213.33-25.6 216.28-22.63 219.23-19.65 219.23-13.75L219.23-13.75Q219.23-12.6 218.83-9.8L218.83-9.8 203.93-9.8Q204.68-7.7 206.53-6.55 208.38-5.4 210.98-5.4L210.98-5.4Q214.83-5.4 217.68-7.55ZM239.73-35.5L239.73-35.5 239.73-29.6Q238.33-30.15 237.13-30.15L237.13-30.15Q235.28-30.15 234.38-29.3 233.48-28.45 233.48-26.3L233.48-26.3 233.48-25.35 238.23-25.35 238.23-20 233.48-20 233.48 0 226.23 0 226.23-20 222.93-20 222.93-25.35 226.23-25.35 226.23-26.3Q226.23-30.9 228.8-33.45 231.38-36 235.93-36L235.93-36Q238.28-36 239.73-35.5ZM257.73-24.6L257.73-24.6 257.73-18.35Q255.08-19.9 251.53-19.9L251.53-19.9Q250.23-19.9 249.53-19.38 248.83-18.85 248.83-18.05L248.83-18.05Q248.83-17.6 249.08-17.2 249.33-16.8 249.9-16.45 250.48-16.1 251-15.83 251.53-15.55 252.45-15.15 253.38-14.75 253.93-14.45L253.93-14.45Q256.23-13.25 257.63-11.68 259.03-10.1 259.03-7.65L259.03-7.65Q259.03-3.9 256.33-1.85 253.63 0.2 249.18 0.2L249.18 0.2Q244.58 0.2 241.48-1.35L241.48-1.35 241.48-7.85Q244.93-5.45 248.78-5.45L248.78-5.45Q251.53-5.45 251.53-7.2L251.53-7.2Q251.53-7.65 251.28-8.05 251.03-8.45 250.43-8.8 249.83-9.15 249.33-9.38 248.83-9.6 247.88-10 246.93-10.4 246.43-10.65L246.43-10.65Q241.38-13.05 241.38-17.85L241.38-17.85Q241.38-21.55 244.2-23.6 247.03-25.65 251.23-25.65L251.23-25.65Q255.13-25.65 257.73-24.6ZM273.97-14.3L273.62-13.1 281.72-13.1 281.37-14.3Q279.92-19.2 279-22.65 278.07-26.1 277.87-27.1L277.87-27.1 277.67-28.1Q277.27-25.35 273.97-14.3L273.97-14.3ZM293.87 0L285.62 0 283.57-6.9 271.77-6.9 269.72 0 261.67 0 272.92-33.7 282.62-33.7 293.87 0ZM306.47 0L298.77 0 298.77-33.7 306.47-33.7 306.47 0Z" opacity="1" transform="matrix(1,0,0,1,0,0)" fill="#124948" class="undefined-text-0" data-fill-palette-color="primary" id="text-0"></path></svg></g></svg></g></svg></g></svg></g><g><svg viewBox="0 0 78.40825117339402 67.03606207190938" height="67.03606207190938" width="78.40825117339402"><g><svg xmlns="http://www.w3.org/2000/svg" xmlns:xlink="http://www.w3.org/1999/xlink" version="1.1" x="0" y="0" viewBox="17.200000762939453 22 65.5 56" style="enable-background:new 0 0 100 100;" xml:space="preserve" height="67.03606207190938" width="78.40825117339402" class="icon-icon-0" data-fill-palette-color="accent" id="icon-0"><rect x="30" y="54" width="40" height="8" fill="#f16d24" data-fill-palette-color="accent"></rect><rect x="17.2" y="70" width="65.5" height="8" fill="#f16d24" data-fill-palette-color="accent"></rect><rect x="17.2" y="38" width="65.5" height="8" fill="#f16d24" data-fill-palette-color="accent"></rect><rect x="30" y="22" width="40" height="8" fill="#f16d24" data-fill-palette-color="accent"></rect></svg></g></svg></g></svg></g><defs></defs></svg><rect width="395.52" height="52.90070625745149" fill="none" stroke="none" visibility="hidden"></rect></g></svg></g></svg>